<mxfile host="app.diagrams.net" modified="2024-07-09T10:24:49.122Z" agent="Mozilla/5.0 (Windows NT 10.0; Win64; x64) AppleWebKit/537.36 (KHTML, like Gecko) Chrome/126.0.0.0 Safari/537.36" etag="zwh1ZH5LjIRCPntnDfDQ" version="24.6.4" type="device">
  <diagram name="ページ1" id="eOdy42E6m8tO23XgPksV">
    <mxGraphModel dx="1035" dy="551" grid="1" gridSize="10" guides="1" tooltips="1" connect="1" arrows="1" fold="1" page="1" pageScale="1" pageWidth="1169" pageHeight="827" math="0" shadow="0">
      <root>
        <mxCell id="0" />
        <mxCell id="1" parent="0" />
        <mxCell id="NauwD-ksB0_6wiWFMnAi-1" value="会社ビル" style="rounded=0;whiteSpace=wrap;html=1;" parent="1" vertex="1">
          <mxGeometry x="910" y="100" width="80" height="90" as="geometry" />
        </mxCell>
        <mxCell id="NauwD-ksB0_6wiWFMnAi-2" value="自宅アパート" style="rounded=0;whiteSpace=wrap;html=1;" parent="1" vertex="1">
          <mxGeometry x="40" y="340" width="120" height="60" as="geometry" />
        </mxCell>
        <mxCell id="NauwD-ksB0_6wiWFMnAi-3" value="" style="endArrow=none;html=1;rounded=0;strokeWidth=2;" parent="1" edge="1">
          <mxGeometry width="50" height="50" relative="1" as="geometry">
            <mxPoint x="50" y="210" as="sourcePoint" />
            <mxPoint x="1120" y="210" as="targetPoint" />
          </mxGeometry>
        </mxCell>
        <mxCell id="NauwD-ksB0_6wiWFMnAi-4" value="" style="endArrow=none;html=1;rounded=0;strokeWidth=2;" parent="1" edge="1">
          <mxGeometry width="50" height="50" relative="1" as="geometry">
            <mxPoint x="190" y="410" as="sourcePoint" />
            <mxPoint x="190" y="210" as="targetPoint" />
          </mxGeometry>
        </mxCell>
        <mxCell id="NauwD-ksB0_6wiWFMnAi-5" value="&lt;font style=&quot;font-size: 14px;&quot;&gt;甲州街道&lt;/font&gt;" style="text;html=1;align=center;verticalAlign=middle;resizable=0;points=[];autosize=1;strokeColor=none;fillColor=none;" parent="1" vertex="1">
          <mxGeometry x="40" y="180" width="80" height="30" as="geometry" />
        </mxCell>
        <mxCell id="NauwD-ksB0_6wiWFMnAi-6" value="" style="endArrow=none;html=1;rounded=0;strokeWidth=2;" parent="1" edge="1">
          <mxGeometry x="-0.0751" width="50" height="50" relative="1" as="geometry">
            <mxPoint x="900" y="210" as="sourcePoint" />
            <mxPoint x="900" y="80" as="targetPoint" />
            <Array as="points" />
            <mxPoint as="offset" />
          </mxGeometry>
        </mxCell>
        <mxCell id="NauwD-ksB0_6wiWFMnAi-7" value="IKEA新宿" style="rounded=0;whiteSpace=wrap;html=1;" parent="1" vertex="1">
          <mxGeometry x="790" y="140" width="80" height="40" as="geometry" />
        </mxCell>
        <mxCell id="NauwD-ksB0_6wiWFMnAi-8" value="ローソン&lt;div&gt;代々木三丁目店&lt;/div&gt;" style="rounded=0;whiteSpace=wrap;html=1;" parent="1" vertex="1">
          <mxGeometry x="30" y="220" width="90" height="30" as="geometry" />
        </mxCell>
        <mxCell id="NauwD-ksB0_6wiWFMnAi-11" value="文化服装学院" style="rounded=0;whiteSpace=wrap;html=1;" parent="1" vertex="1">
          <mxGeometry x="220" y="230" width="100" height="120" as="geometry" />
        </mxCell>
        <mxCell id="NauwD-ksB0_6wiWFMnAi-25" value="" style="endArrow=none;html=1;rounded=0;strokeWidth=2;" parent="1" edge="1">
          <mxGeometry width="50" height="50" relative="1" as="geometry">
            <mxPoint x="700" y="210" as="sourcePoint" />
            <mxPoint x="1110" y="210" as="targetPoint" />
          </mxGeometry>
        </mxCell>
        <mxCell id="joRgx8Pt6zYQtYc6P6Vt-1" value="ファミリーマート&lt;div&gt;代々木三丁目店&lt;/div&gt;" style="rounded=0;whiteSpace=wrap;html=1;" vertex="1" parent="1">
          <mxGeometry x="60" y="290" width="100" height="30" as="geometry" />
        </mxCell>
        <mxCell id="joRgx8Pt6zYQtYc6P6Vt-2" value="新宿駅南口" style="rounded=0;whiteSpace=wrap;html=1;" vertex="1" parent="1">
          <mxGeometry x="525" y="80" width="120" height="100" as="geometry" />
        </mxCell>
        <mxCell id="joRgx8Pt6zYQtYc6P6Vt-4" value="" style="endArrow=classic;html=1;rounded=0;exitX=1;exitY=0.5;exitDx=0;exitDy=0;" edge="1" parent="1" source="NauwD-ksB0_6wiWFMnAi-2">
          <mxGeometry width="50" height="50" relative="1" as="geometry">
            <mxPoint x="270" y="439" as="sourcePoint" />
            <mxPoint x="180" y="350" as="targetPoint" />
          </mxGeometry>
        </mxCell>
        <mxCell id="joRgx8Pt6zYQtYc6P6Vt-5" value="" style="endArrow=classic;html=1;rounded=0;" edge="1" parent="1">
          <mxGeometry width="50" height="50" relative="1" as="geometry">
            <mxPoint x="180" y="350" as="sourcePoint" />
            <mxPoint x="180" y="200" as="targetPoint" />
          </mxGeometry>
        </mxCell>
        <mxCell id="joRgx8Pt6zYQtYc6P6Vt-6" value="" style="endArrow=classic;html=1;rounded=0;" edge="1" parent="1">
          <mxGeometry width="50" height="50" relative="1" as="geometry">
            <mxPoint x="180" y="198.82" as="sourcePoint" />
            <mxPoint x="870" y="198.82" as="targetPoint" />
          </mxGeometry>
        </mxCell>
        <mxCell id="joRgx8Pt6zYQtYc6P6Vt-7" value="" style="endArrow=classic;html=1;rounded=0;entryX=0;entryY=0.5;entryDx=0;entryDy=0;" edge="1" parent="1">
          <mxGeometry width="50" height="50" relative="1" as="geometry">
            <mxPoint x="870" y="200" as="sourcePoint" />
            <mxPoint x="910" y="155" as="targetPoint" />
          </mxGeometry>
        </mxCell>
        <mxCell id="joRgx8Pt6zYQtYc6P6Vt-8" value="新宿マルイ&lt;div&gt;アネックス&lt;/div&gt;" style="rounded=0;whiteSpace=wrap;html=1;" vertex="1" parent="1">
          <mxGeometry x="1010" y="100" width="70" height="100" as="geometry" />
        </mxCell>
      </root>
    </mxGraphModel>
  </diagram>
</mxfile>
